{"title":"Palo Alto 2013 480p HDRip XviD titler","uid":10656524,"size":1206334728,"categoryP":"video","categoryS":"movies","magnet":"?xt=urn:btih:fc8e0477315d7e6a44acffa34db5ccc1d9e3d5b1&amp;dn=Palo+Alto+2013+480p+HDRip+XviD+titler&amp;tr=udp%3A%2F%2Ftracker.openbittorrent.com%3A80&amp;tr=udp%3A%2F%2Fopen.demonii.com%3A1337&amp;tr=udp%3A%2F%2Ftracker.coppersurfer.tk%3A6969&amp;tr=udp%3A%2F%2Fexodus.desync.com%3A6969","seeders":3,"leechers":0,"uploader":"movieZ.freak","files":5,"time":1406673298,"description":"SOURCE: Palo Alto 2013 720p WEB-DL x264 - ETRG \n\n\n\n &lt;a href=&quot;\nhttp://www.imdb.com/title/tt2479800/&quot; rel=&quot;nofollow&quot; target=&quot;_NEW&quot;&gt;\nhttp://www.imdb.com/title/tt2479800/&lt;/a&gt;\n\n\n\n &lt;a href=&quot;\nhttp://www.rottentomatoes.com/m/palo_alto/&quot; rel=&quot;nofollow&quot; target=&quot;_NEW&quot;&gt;\nhttp://www.rottentomatoes.com/m/palo_alto/&lt;/a&gt;\n\n\n\n &lt;a href=&quot;\nhttp://en.wikipedia.org/wiki/Palo_Alto_%282013_film%29&quot; rel=&quot;nofollow&quot; target=&quot;_NEW&quot;&gt;\nhttp://en.wikipedia.org/wiki/Palo_Alto_%282013_film%29&lt;/a&gt;\n\n\n\n\n\n- SAMPLE: Yes\n\n\n- SUBTITLE: English\n\n\n- LANGUAGE / AUDIO: English\n\n\n\n\n\nSCREENSHOTS:\n-------------------    &lt;a href=&quot;\nhttp://someimage.com/zeCa&quot; rel=&quot;nofollow&quot; target=&quot;_NEW&quot;&gt;\nhttp://someimage.com/zeCa&lt;/a&gt;\n\n\n\n\nDIRECTOR: Gia Coppola\n\n\n\n\nCAST: Emma Roberts, James Franco, Nat Wolff, Talia Shire, Val Kilmer, Chris Messina, Janet Jones,...\n\n\nPLOT:\n-----------\nShy, sensitive April (Emma Roberts) is the class virgin -a popular soccer player and frequent babysitter for her single-dad coach, Mr. B. (James Franco). Teddy (Jack Kilmer) is an introspective artist whose best friend and sidekick Fred (Nat Wolff) is an unpredictable live wire with few filters or boundaries. While April negotiates a dangerous affair with Mr. B., and Teddy performs community service for a DUI - secretly carrying a torch for April, who may or may not share his affection - Fred seduces Emily (Zoe Levin), a promiscuous loner who seeks validation through sexual encounters. One high school party bleeds into another as April and Teddy finally acknowledge their mutual affection, and Fred's escalating recklessness spirals into chaos.\n\n\n************************************\n\n- Duration: 1h 39mn\n\n- Bit rate: 1447 Kbps \n\n- Res: 854 x 458\n\n- AR: 1.85:1\n\n- FPS: 23.976 fps\n\n- Audio: MP3, 2 channels, 128Kbps\n\n************************************\n\n\nGeneral\n--------------\nFormat : AVI\nFormat/Info : Audio Video Interleave\nFile size : 1.10 GiB\nDuration : 1h 39mn\nOverall bit rate mode : Variable\nOverall bit rate : 1585 Kbps\nWriting library : VirtualDub build 35491\n\n\nVideo\n-----------\nFormat : MPEG-4 Visual\nFormat profile : Advanced Simple@L5\nFormat settings, BVOP : 2\nFormat settings, QPel : No\nFormat settings, GMC : No warppoints\nFormat settings, Matrix : Default (H.263)\nCodec ID : XVID\nCodec ID/Hint : XviD\nDuration : 1h 39mn\nBit rate : 1447 Kbps\nWidth : 854 pixels\nHeight : 458 pixels\nDisplay aspect ratio : 1.85:1\nFrame rate : 23.976 fps\nColor space : YUV\nChroma subsampling : 4:2:0\nBit depth : 8 bits\nScan type : Progressive\nCompression mode : Lossy\nBits/(Pixel*Frame) : 0.154\nStream size : 1.01 GiB (91%)\nWriting library : XviD 65\n\n\nAudio\n-------------\nFormat : MPEG Audio\nFormat version : Version 1\nFormat profile : Layer 3\nMode : Joint stereo\nMode extension : MS Stereo\nCodec ID : 55\nCodec ID/Hint : MP3\nDuration : 1h 39mn\nBit rate mode : Variable\nBit rate : 128 Kbps\nChannel(s) : 2 channels\nSampling rate : 48.0 KHz\nCompression mode : Lossy\nDelay relative to video : 2ms\nStream size : 91.3 MiB (8%)\nAlignment : Split accross interleaves\nInterleave, duration : 42 ms (1.00 video frame)\nInterleave, preload duration : 500 ms\nWriting library : LAME3.98.4","torrent":{"xt":"urn:btih:fc8e0477315d7e6a44acffa34db5ccc1d9e3d5b1","amp;dn":"Palo+Alto+2013+480p+HDRip+XviD+titler","amp;tr":["udp%3A%2F%2Ftracker.openbittorrent.com%3A80","udp%3A%2F%2Fopen.demonii.com%3A1337","udp%3A%2F%2Ftracker.coppersurfer.tk%3A6969","udp%3A%2F%2Fexodus.desync.com%3A6969"],"infoHash":"fc8e0477315d7e6a44acffa34db5ccc1d9e3d5b1","infoHashBuffer":{"type":"Buffer","data":[252,142,4,119,49,93,126,106,68,172,255,163,77,181,204,193,217,227,213,177]},"announce":[],"urlList":[]}}